HIERARCHY
ROOT reference
{
  OFFSET 0 0 0
  CHANNELS 6 Xposition Yposition Zposition Zrotation Xrotation Yrotation
  JOINT Hips
  {
    OFFSET -17.5301 92.7633 95.8209
    CHANNELS 6 Xposition Yposition Zposition Zrotation Xrotation Yrotation
    JOINT Spine
    {
      OFFSET 0 8.12958 0
      CHANNELS 6 Xposition Yposition Zposition Zrotation Xrotation Yrotation
      JOINT Spine1
      {
        OFFSET 0 26.3907 0
        CHANNELS 6 Xposition Yposition Zposition Zrotation Xrotation Yrotation
        JOINT Neck
        {
          OFFSET 0 26.2823 2.3893
          CHANNELS 6 Xposition Yposition Zposition Zrotation Xrotation Yrotation
          JOINT Head
          {
            OFFSET 0 13.8798 -1.98282
            CHANNELS 6 Xposition Yposition Zposition Zrotation Xrotation Yrotation
            End Site
            {
              OFFSET 0 24.7853 0
            }
          }
        }
        JOINT LeftShoulder
        {
          OFFSET 3.97789 23.5745 -0.27352
          CHANNELS 6 Xposition Yposition Zposition Zrotation Xrotation Yrotation
          JOINT LeftArm
          {
            OFFSET 13.7626 0 0
            CHANNELS 6 Xposition Yposition Zposition Zrotation Xrotation Yrotation
            JOINT LeftForeArm
            {
              OFFSET 26.1014 0 0
              CHANNELS 6 Xposition Yposition Zposition Zrotation Xrotation Yrotation
              JOINT LeftHand
              {
                OFFSET 29.9599 0 0
                CHANNELS 6 Xposition Yposition Zposition Zrotation Xrotation Yrotation
                End Site
                {
                  OFFSET 14.8712 0 0
                }
              }
            }
          }
        }
        JOINT RightShoulder
        {
          OFFSET -3.9517 23.5745 -0.27352
          CHANNELS 6 Xposition Yposition Zposition Zrotation Xrotation Yrotation
          JOINT RightArm
          {
            OFFSET -13.7626 0 0
            CHANNELS 6 Xposition Yposition Zposition Zrotation Xrotation Yrotation
            JOINT RightForeArm
            {
              OFFSET -26.1014 0 0
              CHANNELS 6 Xposition Yposition Zposition Zrotation Xrotation Yrotation
              JOINT RightHand
              {
                OFFSET -29.9599 0 0
                CHANNELS 6 Xposition Yposition Zposition Zrotation Xrotation Yrotation
                End Site
                {
                  OFFSET -14.8712 0 0
                }
              }
            }
          }
        }
      }
    }
    JOINT LeftUpLeg
    {
      OFFSET 9.91412 0 0
      CHANNELS 6 Xposition Yposition Zposition Zrotation Xrotation Yrotation
      JOINT LeftLeg
      {
        OFFSET 0 -41.4279 0
        CHANNELS 6 Xposition Yposition Zposition Zrotation Xrotation Yrotation
        JOINT LeftFoot
        {
          OFFSET 0 -41.0254 0
          CHANNELS 6 Xposition Yposition Zposition Zrotation Xrotation Yrotation
          JOINT LeftToeBase
          {
            OFFSET 0 -6.44418 14.8712
            CHANNELS 6 Xposition Yposition Zposition Zrotation Xrotation Yrotation
            End Site
            {
              OFFSET 0 0 3.96565
            }
          }
        }
      }
    }
    JOINT RightUpLeg
    {
      OFFSET -9.91412 0 0
      CHANNELS 6 Xposition Yposition Zposition Zrotation Xrotation Yrotation
      JOINT RightLeg
      {
        OFFSET 0 -41.4279 0
        CHANNELS 6 Xposition Yposition Zposition Zrotation Xrotation Yrotation
        JOINT RightFoot
        {
          OFFSET 0 -41.0254 0
          CHANNELS 6 Xposition Yposition Zposition Zrotation Xrotation Yrotation
          JOINT RightToeBase
          {
            OFFSET 0 -6.44418 14.8712
            CHANNELS 6 Xposition Yposition Zposition Zrotation Xrotation Yrotation
            End Site
            {
              OFFSET 0 0 3.96565
            }
          }
        }
      }
    }
  }
}
MOTION
Frames:	11
Frame Time:	0.004
0 0 0 0 0 -0 -32.0979 87.1448 -107.455 -2.08797 0.945937 1.69497 0 8.12958 -1.42109e-014 0.567024 6.04725 -1.52145 7.10543e-015 26.3907 0 -2.82899 32.9447 -0.654882 -7.10543e-015 26.2823 2.3893 -8.58401 25.7055 -0.711637 0 13.8798 -1.98282 -1.19772 16.5691 -1.52782 3.97789 23.5745 -0.27352 -4.46202 24.1407 -15.8931 13.7626 0 2.84217e-014 -3.68461 32.9146 -58.3181 26.1014 0 -3.55271e-015 10.7849 -3.89204 -24.0403 29.9599 0 7.10543e-015 10.8611 -1.98853 -4.17963 -3.9517 23.5745 -0.27352 7.45285 23.7316 18.1253 -13.7626 0 0 14.9882 26.7575 51.3157 -26.1014 0 1.42109e-014 -9.08977 -14.5711 22.8305 -29.9599 1.42109e-014 1.42109e-014 -7.52168 -13.026 3.77747 9.91412 -1.42109e-014 0 -3.56373 -6.24668 6.61098 -3.55271e-015 -41.4279 0 0.99674 6.98521 -1.21043 0 -41.0254 1.42109e-014 4.02428 -1.94154 2.07396 0 -6.44418 14.8712 -1.86361e-016 -2.48481e-017 -0 -9.91412 0 -1.42109e-014 -2.52576 -14.6496 -3.70775 0 -41.4279 0 4.30994 38.481 4.11734 7.10543e-015 -41.0254 0 2.69888 -11.1023 -9.80905 7.10543e-015 -6.44418 14.8712 -3.97569e-016 0 1.59028e-015 
0 0 0 0 0 -0 -32.0368 87.1494 -107.204 -2.09771 0.97457 1.87377 -3.55271e-015 8.12958 1.42109e-014 0.624254 6.02463 -1.61325 0 26.3907 0 -2.75333 32.8887 -0.767593 7.10543e-015 26.2823 2.3893 -8.57338 25.7368 -0.759349 7.10543e-015 13.8798 -1.98282 -1.07896 16.541 -1.57983 3.97789 23.5745 -0.27352 -4.44112 24.0982 -15.9536 13.7626 -7.10543e-015 0 -3.77675 32.8763 -58.1927 26.1014 0 -8.88178e-016 10.5784 -3.82858 -23.8079 29.9599 0 -7.10543e-015 10.5514 -1.98139 -4.19028 -3.9517 23.5745 -0.27352 7.42115 23.6917 18.1421 -13.7626 0 0 14.9538 26.7362 51.2888 -26.1014 0 -1.42109e-014 -9.28898 -14.4928 22.7071 -29.9599 -7.10543e-015 0 -6.57711 -12.9244 4.4373 9.91412 1.42109e-014 0 -3.6391 -6.10261 6.28845 -1.77636e-015 -41.4279 0 1.03653 6.94882 -0.922698 -3.55271e-015 -41.0254 0 3.96711 -2.07294 1.94715 1.77636e-015 -6.44418 14.8712 1.49089e-016 -2.48481e-016 1.59028e-015 -9.91412 0 0 -2.49589 -14.905 -3.75616 -7.10543e-015 -41.4279 0 4.19594 38.0093 4.3736 0 -41.0254 0 2.61351 -11.0237 -9.82888 0 -6.44418 14.8712 1.98785e-016 -1.59028e-015 -0 
0 0 0 0 0 -0 -31.9683 87.1563 -106.929 -2.07823 0.918335 1.92054 7.10543e-015 8.12958 0 0.686206 6.05113 -1.63765 0 26.3907 -1.42109e-014 -2.80006 32.8878 -0.774834 -7.10543e-015 26.2823 2.3893 -8.50142 25.7003 -0.803229 7.10543e-015 13.8798 -1.98282 -0.99782 16.594 -1.6155 3.97789 23.5745 -0.27352 -4.36507 24.0829 -15.9987 13.7626 0 0 -3.81321 32.8122 -58.1588 26.1014 0 -8.88178e-016 10.4052 -3.75341 -23.5204 29.9599 0 0 10.3226 -1.9544 -4.10792 -3.9517 23.5745 -0.27352 7.46549 23.6145 18.103 -13.7626 0 0 15.0599 26.501 51.2366 -26.1014 0 -1.42109e-014 -8.97728 -14.47 22.8711 -29.9599 0 7.10543e-015 -7.59421 -12.9491 3.83143 9.91412 -1.42109e-014 0 -3.59238 -5.8296 6.36277 -1.77636e-015 -41.4279 0 0.822332 6.93335 -1.19735 0 -41.0254 0 4.10147 -2.20498 2.20604 -1.77636e-015 -6.44418 14.8712 -6.21202e-018 -9.93923e-017 -0 -9.91412 1.42109e-014 0 -2.47307 -15.0787 -3.5908 7.10543e-015 -41.4279 0 4.18253 37.4937 4.36501 7.10543e-015 -41.0254 0 2.87823 -10.9557 -9.59725 0 -6.44418 14.8712 -1.98785e-016 -1.59028e-015 -0 
0 0 0 0 0 -0 -31.9032 87.1691 -106.636 -2.05541 0.867984 1.9433 -3.55271e-015 8.12958 0 0.70393 6.02712 -1.67186 -7.10543e-015 26.3907 1.42109e-014 -2.78209 32.9215 -0.812666 7.10543e-015 26.2823 2.3893 -8.54232 25.689 -0.81504 -7.10543e-015 13.8798 -1.98282 -0.886729 16.6122 -1.63073 3.97789 23.5745 -0.27352 -4.37806 24.063 -16.0004 13.7626 7.10543e-015 0 -3.91232 32.6885 -58.0137 26.1014 0 -1.77636e-015 10.1555 -3.63085 -23.3119 29.9599 1.42109e-014 0 10.1049 -1.8807 -3.94049 -3.9517 23.5745 -0.27352 7.4111 23.6052 18.1549 -13.7626 0 0 14.94 26.5714 51.2331 -26.1014 1.42109e-014 0 -9.19408 -14.6144 22.9692 -29.9599 0 0 -7.90174 -13.0335 3.53452 9.91412 1.42109e-014 0 -3.68156 -5.49811 6.1878 0 -41.4279 -1.42109e-014 0.843969 6.754 -0.83007 3.55271e-015 -41.0254 0 4.04986 -2.27336 1.99151 3.55271e-015 -6.44418 14.8712 6.21202e-018 -4.96962e-017 -0 -9.91412 -1.42109e-014 0 -2.41602 -15.195 -3.48695 -7.10543e-015 -41.4279 0 4.04173 36.9243 4.83975 7.10543e-015 -41.0254 0 2.86096 -10.9229 -9.83917 0 -6.44418 14.8712 -5.96354e-016 1.59028e-015 7.95139e-016 
0 0 0 0 0 -0 -31.8379 87.1682 -106.389 -2.07247 0.869387 2.07456 0 8.12958 0 0.832241 6.09307 -1.76552 7.10543e-015 26.3907 0 -2.85279 32.7628 -0.88245 0 26.2823 2.3893 -8.46642 25.7056 -0.84071 0 13.8798 -1.98282 -0.840828 16.6866 -1.65148 3.97789 23.5745 -0.27352 -4.32359 24.093 -15.989 13.7626 0 0 -3.90837 32.7036 -58.0223 26.1014 0 1.77636e-015 10.05 -3.63979 -22.9481 29.9599 1.42109e-014 7.10543e-015 9.89962 -1.94124 -3.98051 -3.9517 23.5745 -0.27352 7.45181 23.6425 18.1898 -13.7626 1.42109e-014 0 14.9741 26.3141 51.2076 -26.1014 1.42109e-014 0 -9.08348 -14.4465 22.9217 -29.9599 7.10543e-015 0 -7.61838 -12.8922 3.69456 9.91412 0 0 -3.7154 -5.30813 5.9638 -3.55271e-015 -41.4279 1.42109e-014 0.824455 6.69557 -0.688541 0 -41.0254 0 4.0886 -2.42508 1.96988 1.77636e-015 -6.44418 14.8712 -1.67725e-016 -1.49089e-016 -0 -9.91412 -1.42109e-014 1.42109e-014 -2.38113 -15.4314 -3.40558 -7.10543e-015 -41.4279 0 4.03925 36.4202 5.05269 0 -41.0254 0 2.44852 -10.6102 -9.92517 -7.10543e-015 -6.44418 14.8712 4.41391e-032 1.59028e-015 -1.59028e-015 
0 0 0 0 0 -0 -31.7728 87.1751 -106.12 -2.05956 0.84971 2.15745 3.55271e-015 8.12958 1.42109e-014 0.829102 6.0143 -1.78075 7.10543e-015 26.3907 0 -2.71977 32.8945 -0.934136 7.10543e-015 26.2823 2.3893 -8.41481 25.6616 -0.93885 -7.10543e-015 13.8798 -1.98282 -0.838655 16.6744 -1.74535 3.97789 23.5745 -0.27352 -4.28306 24.0233 -16.1569 13.7626 0 0 -4.06055 32.5588 -57.8304 26.1014 0 8.88178e-016 9.7143 -3.57063 -22.7187 29.9599 -1.42109e-014 0 9.82494 -1.93449 -3.70349 -3.9517 23.5745 -0.27352 7.38509 23.556 18.1488 -13.7626 0 0 14.9403 26.2371 51.2134 -26.1014 -1.42109e-014 0 -9.15758 -14.4206 23.0037 -29.9599 7.10543e-015 0 -8.39227 -12.8419 3.3123 9.91412 1.42109e-014 1.42109e-014 -3.77896 -5.05197 5.7726 0 -41.4279 0 0.82349 6.60663 -0.147985 -1.77636e-015 -41.0254 0 4.04664 -2.57735 1.55893 0 -6.44418 14.8712 -2.29845e-016 0 -0 -9.91412 0 1.42109e-014 -2.34026 -15.5939 -3.37969 7.10543e-015 -41.4279 0 3.92128 35.8364 5.30416 0 -41.0254 0 2.95933 -10.5766 -9.99793 7.10543e-015 -6.44418 14.8712 5.96354e-016 0 -0 
0 0 0 0 0 -0 -31.705 87.1805 -105.832 -2.03902 0.797181 2.17551 0 8.12958 0 0.875813 5.98021 -1.80233 7.10543e-015 26.3907 0 -2.74008 32.9606 -0.945874 0 26.2823 2.3893 -8.43228 25.644 -0.965798 -7.10543e-015 13.8798 -1.98282 -0.696975 16.7038 -1.77388 3.97789 23.5745 -0.27352 -4.24816 23.8913 -16.2072 13.7626 7.10543e-015 0 -4.34913 32.4357 -57.5945 26.1014 -1.42109e-014 3.55271e-015 9.46321 -3.29666 -22.5282 29.9599 0 0 9.43718 -1.72312 -3.80583 -3.9517 23.5745 -0.27352 7.35726 23.4765 18.1752 -13.7626 0 0 15.0125 26.0955 51.1796 -26.1014 0 0 -9.18433 -14.3093 22.9728 -29.9599 -7.10543e-015 0 -7.92688 -12.7589 3.9792 9.91412 1.42109e-014 0 -3.86334 -4.41336 3.52812 3.55271e-015 -41.4279 -1.42109e-014 0.570486 5.80449 2.50777 3.55271e-015 -41.0254 0 4.04461 -2.40865 1.11449 3.55271e-015 -6.44418 14.8712 7.45443e-017 9.93923e-017 -0 -9.91412 0 1.42109e-014 -2.29072 -15.6804 -2.96162 0 -41.4279 0 4.03778 35.1487 5.09293 7.10543e-015 -41.0254 0 2.63559 -10.538 -9.93108 0 -6.44418 14.8712 -7.95139e-016 0 -1.59028e-015 
0 0 0 0 0 -0 -31.6392 87.1808 -105.558 -2.03029 0.768341 2.25805 0 8.12958 2.84217e-014 0.962534 6.02641 -1.87998 -7.10543e-015 26.3907 0 -2.79613 32.8528 -1.00484 7.10543e-015 26.2823 2.3893 -8.31553 25.7164 -0.990125 7.10543e-015 13.8798 -1.98282 -0.757909 16.6496 -1.79467 3.97789 23.5745 -0.27352 -4.28905 23.9944 -16.1284 13.7626 7.10543e-015 0 -4.13056 32.4509 -57.6733 26.1014 1.42109e-014 -8.88178e-016 9.39721 -3.26219 -22.1598 29.9599 0 0 9.20674 -1.71559 -3.68128 -3.9517 23.5745 -0.27352 7.36899 23.5296 18.2467 -13.7626 0 0 14.9454 26.0047 51.1457 -26.1014 -1.42109e-014 0 -9.30157 -13.9869 22.9839 -29.9599 7.10543e-015 0 -8.0594 -12.4199 4.0563 9.91412 0 0 -3.88971 -4.17042 4.02709 0 -41.4279 1.42109e-014 0.574096 5.74257 1.91356 0 -41.0254 0 4.09579 -2.5146 1.15305 0 -6.44418 14.8712 2.48481e-017 0 -0 -9.91412 0 1.42109e-014 -2.19219 -15.9536 -2.86634 0 -41.4279 0 3.84426 34.7424 5.02422 -7.10543e-015 -41.0254 0 2.94871 -10.2841 -9.64071 0 -6.44418 14.8712 7.95139e-016 0 -1.59028e-015 
0 0 0 0 0 -0 -31.5789 87.1803 -105.289 -2.03426 0.743203 2.34361 0 8.12958 0 0.959885 5.96577 -1.89431 0 26.3907 0 -2.62666 32.9599 -1.06712 -7.10543e-015 26.2823 2.3893 -8.36923 25.6847 -1.0394 0 13.8798 -1.98282 -0.616283 16.7056 -1.84846 3.97789 23.5745 -0.27352 -4.24479 23.8793 -16.3021 13.7626 1.42109e-014 2.84217e-014 -4.4311 32.2924 -57.437 26.1014 0 8.88178e-016 9.07814 -3.10718 -21.9323 29.9599 1.42109e-014 0 9.19014 -1.63817 -3.64008 -3.9517 23.5745 -0.27352 7.32745 23.4098 18.2177 -13.7626 0 0 14.9305 25.9376 51.1152 -26.1014 0 -1.42109e-014 -9.3939 -14.0141 22.9795 -29.9599 7.10543e-015 0 -7.97632 -12.4107 3.82772 9.91412 1.42109e-014 0 -3.93036 -4.0498 4.62249 0 -41.4279 0 0.667078 5.90595 1.22373 -5.32907e-015 -41.0254 0 4.12899 -2.71726 1.15579 1.77636e-015 -6.44418 14.8712 4.22417e-016 1.49089e-016 -1.59028e-015 -9.91412 0 1.42109e-014 -2.17722 -16.1521 -2.61718 0 -41.4279 0 3.98858 34.2202 5.19803 7.10543e-015 -41.0254 -1.42109e-014 2.70434 -10.1605 -9.93618 -7.10543e-015 -6.44418 14.8712 1.98785e-016 -1.59028e-015 -0 
0 0 0 0 0 -0 -31.5106 87.1792 -105.02 -2.00965 0.739363 2.41684 -3.55271e-015 8.12958 0 1.00762 5.9087 -1.93295 0 26.3907 0 -2.6282 33.0017 -1.10229 0 26.2823 2.3893 -8.34492 25.6819 -1.06371 0 13.8798 -1.98282 -0.519933 16.7591 -1.87146 3.97789 23.5745 -0.27352 -4.18448 23.8296 -16.371 13.7626 7.10543e-015 0 -4.53886 32.2239 -57.3479 26.1014 1.42109e-014 0 8.90319 -2.89899 -21.5694 29.9599 0 0 8.88721 -1.47024 -3.46941 -3.9517 23.5745 -0.27352 7.30709 23.3667 18.2369 -13.7626 0 0 14.8932 25.9471 51.0757 -26.1014 1.42109e-014 0 -9.64029 -13.7425 23.0566 -29.9599 0 7.10543e-015 -8.75102 -12.0899 3.60131 9.91412 0 0 -4.01965 -3.92144 4.97729 7.10543e-015 -41.4279 0 0.756251 6.04154 0.587025 1.77636e-015 -41.0254 -1.42109e-014 4.03569 -2.94632 1.47023 1.77636e-015 -6.44418 14.8712 3.47873e-016 4.96962e-017 -3.18055e-015 -9.91412 0 0 -2.1562 -16.3424 -2.52694 0 -41.4279 0 3.93486 33.6257 5.27444 0 -41.0254 0 2.63089 -9.94825 -9.97094 7.10543e-015 -6.44418 14.8712 -1.98785e-016 0 1.59028e-015 
0 0 0 0 0 -0 -31.4497 87.1777 -104.756 -2.00519 0.729169 2.50126 0 8.12958 1.42109e-014 1.04048 5.88275 -1.98393 0 26.3907 0 -2.54865 33.0222 -1.1749 -7.10543e-015 26.2823 2.3893 -8.23648 25.5194 -1.04355 0 13.8798 -1.98282 -0.657319 17.0528 -1.82475 3.97789 23.5745 -0.27352 -4.21081 23.8423 -16.3878 13.7626 0 0 -4.52976 32.1409 -57.2891 26.1014 0 -1.77636e-015 8.7479 -2.84323 -21.2663 29.9599 0 0 8.89839 -1.4641 -3.41231 -3.9517 23.5745 -0.27352 7.24243 23.3612 18.2922 -13.7626 0 0 14.9252 25.753 51.0379 -26.1014 -1.42109e-014 1.42109e-014 -9.7405 -13.6501 22.9926 -29.9599 0 7.10543e-015 -8.11386 -12.0015 4.16225 9.91412 0 0 -4.06135 -3.76908 5.33763 -7.10543e-015 -41.4279 0 0.800926 6.10537 0.168904 1.77636e-015 -41.0254 0 4.02081 -3.12894 1.43854 5.32907e-015 -6.44418 14.8712 2.48481e-016 -4.96962e-017 1.59028e-015 -9.91412 -2.84217e-014 0 -2.08747 -16.527 -2.47975 7.10543e-015 -41.4279 1.42109e-014 3.81505 32.9995 5.04665 0 -41.0254 0 2.87085 -9.72988 -9.71045 0 -6.44418 14.8712 4.96962e-016 0 -0 
